<svg width="482" height="398" viewBox="0 0 482 398" fill="none" xmlns="http://www.w3.org/2000/svg">
<path d="M230.752 397.259C351.381 397.259 449.17 391.443 449.17 384.269C449.17 377.095 351.381 371.28 230.752 371.28C110.124 371.28 12.335 377.095 12.335 384.269C12.335 391.443 110.124 397.259 230.752 397.259Z" fill="#E3136D"/>
<path opacity="0.6" d="M230.752 397.259C351.381 397.259 449.17 391.443 449.17 384.269C449.17 377.095 351.381 371.28 230.752 371.28C110.124 371.28 12.335 377.095 12.335 384.269C12.335 391.443 110.124 397.259 230.752 397.259Z" fill="white"/>
<path d="M52.3658 109.05H416.084C419.321 109.05 422.426 110.336 424.716 112.626C427.005 114.915 428.291 118.02 428.291 121.258V360.974H40.1699V121.258C40.1699 118.022 41.4545 114.919 43.7413 112.63C46.0282 110.341 49.1302 109.053 52.3658 109.05Z" fill="#E3136D" stroke="#263238" stroke-width="0.920603" stroke-miterlimit="10"/>
<path d="M412.548 128.739H55.9141V330.28H412.548V128.739Z" fill="white"/>
<mask id="mask0_1_9698" style="mask-type:luminance" maskUnits="userSpaceOnUse" x="55" y="128" width="358" height="203">
<path d="M412.548 128.739H55.9141V330.28H412.548V128.739Z" fill="white"/>
</mask>
<g mask="url(#mask0_1_9698)">
<g style="mix-blend-mode:multiply" opacity="0.4">
<path d="M412.548 330.281V158.242L117.547 330.281H412.548Z" fill="#E3136D"/>
</g>
</g>
<path d="M412.548 128.739H55.9141V330.28H412.548V128.739Z" stroke="#263238" stroke-width="0.690452" stroke-miterlimit="10"/>
<path d="M368.478 348.849H101.744V361.99H368.478V348.849Z" fill="#E3136D" stroke="#263238" stroke-width="0.691688" stroke-miterlimit="10"/>
<path d="M368.478 355.186H101.744V362.001H368.478V355.186Z" fill="#E3136D" stroke="#263238" stroke-width="0.691688" stroke-miterlimit="10"/>
<path d="M8.77539 369.786C8.77539 369.786 13.1636 375.143 26.2815 379.519H443.93C443.93 379.519 453.663 377.08 458.051 370.264L8.77539 369.786Z" fill="#E3136D" stroke="#263238" stroke-width="0.920603" stroke-miterlimit="10"/>
<path d="M455.846 360.193H11.0398C9.29947 360.193 7.88867 361.603 7.88867 363.344V367.277C7.88867 369.017 9.29947 370.428 11.0398 370.428H455.846C457.586 370.428 458.997 369.017 458.997 367.277V363.344C458.997 361.603 457.586 360.193 455.846 360.193Z" fill="#E3136D" stroke="#263238" stroke-width="0.920603" stroke-miterlimit="10"/>
<path d="M234.149 120.079C236.031 120.079 237.557 118.553 237.557 116.671C237.557 114.789 236.031 113.263 234.149 113.263C232.267 113.263 230.741 114.789 230.741 116.671C230.741 118.553 232.267 120.079 234.149 120.079Z" fill="#263238"/>
<path d="M189.123 113.263H103.927C103.703 113.263 103.481 113.219 103.275 113.134C103.068 113.048 102.88 112.922 102.722 112.764C102.564 112.606 102.438 112.418 102.352 112.211C102.267 112.005 102.223 111.783 102.223 111.559C102.223 111.336 102.267 111.114 102.352 110.907C102.438 110.701 102.564 110.513 102.722 110.355C102.88 110.196 103.068 110.071 103.275 109.985C103.481 109.9 103.703 109.855 103.927 109.855H189.123C189.574 109.859 190.005 110.039 190.324 110.358C190.643 110.677 190.824 111.108 190.827 111.559C190.827 112.011 190.647 112.445 190.328 112.764C190.008 113.084 189.575 113.263 189.123 113.263Z" fill="#E3136D" stroke="#263238" stroke-width="0.691688" stroke-miterlimit="10"/>
<path d="M362.888 113.263H277.692C277.24 113.263 276.807 113.084 276.487 112.764C276.168 112.445 275.988 112.011 275.988 111.559C275.991 111.108 276.172 110.677 276.491 110.358C276.81 110.039 277.241 109.859 277.692 109.855H362.888C363.34 109.855 363.774 110.035 364.093 110.355C364.413 110.674 364.592 111.107 364.592 111.559C364.592 112.011 364.413 112.445 364.093 112.764C363.774 113.084 363.34 113.263 362.888 113.263Z" fill="#E3136D" stroke="#263238" stroke-width="0.691688" stroke-miterlimit="10"/>
<path d="M424.954 179.95C424.696 179.95 424.448 179.848 424.265 179.667C424.081 179.486 423.977 179.239 423.974 178.981V150.75C423.977 150.491 424.081 150.243 424.264 150.06C424.447 149.877 424.695 149.773 424.954 149.77C425.212 149.773 425.458 149.877 425.64 150.061C425.821 150.244 425.923 150.492 425.923 150.75V178.981C425.923 179.238 425.821 179.485 425.639 179.666C425.457 179.848 425.211 179.95 424.954 179.95Z" fill="#E3136D" stroke="#263238" stroke-width="0.691688" stroke-miterlimit="10"/>
<path d="M43.8232 179.95C43.6959 179.95 43.57 179.925 43.4525 179.876C43.3349 179.828 43.2282 179.756 43.1382 179.666C43.0483 179.576 42.9769 179.47 42.9282 179.352C42.8795 179.235 42.8545 179.109 42.8545 178.981V150.75C42.8545 150.492 42.9561 150.244 43.1375 150.061C43.3188 149.877 43.5652 149.773 43.8232 149.77C44.0822 149.773 44.3298 149.877 44.513 150.06C44.6962 150.243 44.8005 150.491 44.8035 150.75V178.981C44.8004 179.239 44.6958 179.486 44.5123 179.667C44.3287 179.848 44.0811 179.95 43.8232 179.95Z" fill="#E3136D" stroke="#263238" stroke-width="0.691688" stroke-miterlimit="10"/>
<path d="M310.58 187.349C312.237 186.182 314.022 184.104 314.081 181.91C314.103 181.396 314.017 180.883 313.829 180.404C313.64 179.926 313.354 179.491 312.988 179.13C312.622 178.768 312.184 178.487 311.703 178.305C311.222 178.122 310.708 178.043 310.194 178.071C307.102 178.351 304.359 183.206 303.706 185.902C303.706 186.135 303.239 189.881 303.297 189.87C303.355 189.858 308.619 188.738 310.58 187.349Z" fill="#263238"/>
<path d="M283.865 245.866C283.791 245.45 283.63 245.054 283.391 244.705C283.153 244.355 282.843 244.061 282.483 243.84C282.122 243.619 281.718 243.478 281.299 243.425C280.879 243.372 280.453 243.408 280.049 243.532C277.715 244.337 276.396 248.714 276.431 250.978C276.431 251.118 276.653 252.822 276.781 253.685C276.513 253.02 276.256 252.343 275.988 251.643C275.602 250.628 275.229 249.554 274.821 248.504L274.295 246.835C274.109 246.275 273.992 245.668 273.84 245.154C273.63 244.314 273.455 243.439 273.28 242.563C275.177 242.037 276.98 241.218 278.625 240.136C279.897 238.969 281.193 237.253 281.064 235.467C281.049 235.048 280.946 234.636 280.761 234.259C280.576 233.882 280.313 233.549 279.991 233.28C279.668 233.011 279.292 232.814 278.888 232.7C278.484 232.586 278.06 232.559 277.645 232.62C275.159 233.063 273.245 237.195 272.977 239.435C272.977 239.505 272.977 239.984 272.977 240.603C272.837 239.739 272.685 238.887 272.568 238.012C272.218 235.537 271.95 233.005 271.669 230.472C271.611 229.936 271.541 229.41 271.483 228.885C273.433 228.338 275.29 227.5 276.991 226.399C278.263 225.232 279.559 223.517 279.43 221.731C279.413 221.312 279.309 220.901 279.123 220.525C278.938 220.149 278.675 219.816 278.353 219.548C278.031 219.28 277.656 219.082 277.252 218.967C276.849 218.853 276.426 218.824 276.011 218.883C273.525 219.327 271.611 223.458 271.343 225.699C271.343 225.781 271.343 226.353 271.343 226.983C271.168 225.617 270.981 224.24 270.747 222.886C270.366 220.562 269.832 218.266 269.149 216.012C269.464 215.919 273.397 214.729 274.832 213.48C276.093 212.313 277.4 210.597 277.26 208.811C277.245 208.392 277.141 207.98 276.956 207.603C276.771 207.226 276.509 206.893 276.186 206.624C275.863 206.355 275.488 206.158 275.083 206.044C274.679 205.93 274.256 205.903 273.84 205.964C271.354 206.407 269.44 210.539 269.172 212.78C269.172 212.931 269.102 215.009 269.114 215.744C269.108 215.717 269.108 215.689 269.114 215.662C268.38 213.469 267.455 211.344 266.348 209.313C265.372 207.492 264.288 205.731 263.103 204.038C262.018 202.451 260.932 201.074 259.952 199.86C259.427 199.206 258.925 198.611 258.458 198.074C258.458 198.074 257.618 195.145 257.536 194.958C256.638 192.893 253.685 189.426 251.164 189.683C250.748 189.735 250.348 189.875 249.99 190.093C249.632 190.31 249.324 190.601 249.086 190.946C248.848 191.29 248.686 191.682 248.609 192.094C248.533 192.505 248.545 192.929 248.643 193.336C248.993 195.087 250.72 196.429 252.249 197.164C254.194 197.776 256.222 198.079 258.26 198.063C258.738 198.646 259.24 199.23 259.777 199.953C260.722 201.191 261.784 202.591 262.823 204.19C263.103 204.622 263.383 205.089 263.663 205.532C263.033 204.878 262.158 203.98 262.053 203.91C260.302 202.486 256.089 200.77 253.977 202.147C253.631 202.387 253.34 202.697 253.122 203.056C252.904 203.416 252.765 203.817 252.712 204.234C252.659 204.651 252.694 205.075 252.816 205.477C252.937 205.88 253.142 206.252 253.416 206.571C254.053 207.199 254.817 207.683 255.656 207.991C256.496 208.299 257.391 208.424 258.283 208.356C260.034 208.356 263.348 206.722 264.118 206.372C264.737 207.376 265.286 208.426 265.904 209.558C266.954 211.586 267.821 213.703 268.495 215.884C268.495 216.012 268.495 216.152 268.588 216.281C268.332 215.896 266.779 213.947 266.651 213.795C265.064 212.184 261.061 210.014 258.808 211.157C258.438 211.357 258.115 211.632 257.859 211.965C257.602 212.298 257.419 212.681 257.321 213.09C257.223 213.499 257.212 213.923 257.29 214.336C257.367 214.749 257.53 215.142 257.77 215.487C258.727 216.981 260.827 217.623 262.508 217.751C264.445 217.903 268.46 216.421 268.612 216.362C269.222 218.559 269.69 220.793 270.012 223.05C270.257 224.719 270.444 226.411 270.607 228.127C270.269 227.636 268.81 225.792 268.693 225.676C267.106 224.065 263.103 221.906 260.851 223.038C260.481 223.238 260.157 223.513 259.901 223.846C259.645 224.179 259.462 224.562 259.364 224.971C259.265 225.379 259.255 225.804 259.332 226.217C259.409 226.63 259.573 227.022 259.812 227.368C260.769 228.873 262.87 229.504 264.55 229.632C266.441 229.784 270.292 228.383 270.619 228.267C270.701 229.037 270.771 229.819 270.841 230.601C271.074 233.145 271.284 235.689 271.576 238.198C271.681 239.062 271.81 239.914 271.938 240.766C271.401 240.054 270.386 238.782 270.292 238.677C268.705 237.078 264.702 234.907 262.45 236.051C262.079 236.248 261.755 236.522 261.497 236.853C261.24 237.185 261.056 237.567 260.956 237.975C260.857 238.382 260.845 238.807 260.922 239.219C260.998 239.632 261.161 240.024 261.399 240.369C262.368 241.875 264.469 242.505 266.149 242.633C268.149 242.505 270.118 242.068 271.985 241.338C272.206 242.762 272.451 244.162 272.767 245.528C272.918 246.123 273.035 246.695 273.21 247.278C273.385 247.862 273.525 248.445 273.688 248.959C274.062 250.126 274.4 251.141 274.774 252.192C274.961 252.717 275.147 253.207 275.334 253.72C274.902 252.915 274.167 251.655 274.097 251.55C272.778 249.729 269.149 246.975 266.744 247.757C266.349 247.898 265.988 248.121 265.685 248.411C265.382 248.702 265.143 249.053 264.984 249.441C264.826 249.83 264.751 250.248 264.765 250.667C264.778 251.087 264.88 251.499 265.064 251.876C265.787 253.51 267.771 254.456 269.405 254.841C271.039 255.226 275.112 254.502 275.579 254.409C276.046 255.658 276.513 256.872 276.956 258.004C278.392 261.575 279.711 264.492 280.668 266.523C281.625 268.554 282.22 269.698 282.22 269.698C282.331 269.896 282.515 270.044 282.732 270.109C282.95 270.174 283.185 270.152 283.387 270.048C283.583 269.935 283.729 269.751 283.794 269.534C283.859 269.317 283.839 269.083 283.737 268.881C283.737 268.881 283.142 267.784 282.15 265.788C281.158 263.792 279.816 260.945 278.298 257.443C277.867 256.428 277.423 255.354 276.98 254.246C277.435 254.024 280.994 252.308 282.185 250.884C283.375 249.461 284.262 247.605 283.865 245.866Z" fill="#263238"/>
<path d="M264.119 205.882C264.119 205.882 267.889 203.548 268.974 201.902C269.908 200.49 270.689 198.401 270.141 196.767C270.014 196.368 269.805 195.999 269.526 195.686C269.248 195.372 268.907 195.121 268.525 194.948C268.143 194.775 267.729 194.685 267.309 194.683C266.89 194.68 266.475 194.766 266.091 194.935C263.757 196.009 263.057 200.502 263.349 202.743C263.349 202.929 264.119 205.905 264.119 205.882Z" fill="#263238"/>
<path d="M321.562 187.349C323.511 188.796 328.856 189.87 328.856 189.87C328.856 189.87 328.506 186.135 328.448 185.902C327.829 183.206 325.063 178.351 321.97 178.071C321.456 178.041 320.941 178.119 320.459 178.301C319.977 178.483 319.539 178.764 319.173 179.126C318.806 179.488 318.52 179.923 318.332 180.403C318.145 180.882 318.06 181.396 318.084 181.911C318.107 184.046 319.893 186.065 321.562 187.349Z" fill="#263238"/>
<path d="M343.736 239.109C340.643 239.237 337.621 243.94 336.874 246.613C336.874 246.765 336.547 248.527 336.384 249.647C336.384 248.97 336.384 248.329 336.384 247.64C336.384 246.275 336.314 244.909 336.255 243.45C336.255 242.75 336.162 242.038 336.104 241.314C336.045 240.591 335.94 239.844 335.858 239.109C335.637 237.393 335.333 235.678 334.983 233.939C336.15 233.939 340.422 233.81 342.301 232.947C344.18 232.083 346.327 230.449 346.794 228.278C346.924 227.779 346.947 227.258 346.861 226.749C346.775 226.241 346.583 225.756 346.296 225.327C346.009 224.898 345.635 224.535 345.198 224.261C344.761 223.987 344.271 223.809 343.76 223.738C340.678 223.377 336.979 227.578 335.835 230.111C335.765 230.262 335.147 232.165 334.831 233.215C334.61 232.176 334.4 231.138 334.155 230.099C333.419 227.088 332.579 224.065 331.762 221.042C331.505 220.12 331.272 219.187 331.027 218.265C331.692 218.265 336.547 218.265 338.601 217.261C340.655 216.257 342.628 214.764 343.094 212.593C343.223 212.094 343.244 211.573 343.157 211.065C343.071 210.557 342.878 210.073 342.592 209.645C342.305 209.216 341.932 208.853 341.496 208.579C341.059 208.305 340.57 208.125 340.06 208.053C336.979 207.703 333.291 211.904 332.147 214.425C332.054 214.612 331.167 217.354 330.98 218.066C330.443 216.024 329.93 213.993 329.51 211.963C328.928 209.234 328.526 206.47 328.308 203.688C328.669 203.688 333.804 203.688 335.929 202.684C337.807 201.821 339.955 200.187 340.433 198.016C340.56 197.516 340.579 196.995 340.491 196.487C340.403 195.979 340.209 195.496 339.922 195.067C339.635 194.639 339.261 194.276 338.824 194.002C338.387 193.728 337.898 193.549 337.387 193.476C334.306 193.126 330.618 197.328 329.475 199.848C329.381 200.047 328.436 202.999 328.308 203.536C328.308 203.385 328.308 203.21 328.308 203.046C328.151 200.246 328.245 197.438 328.588 194.655C328.763 193.114 329.008 191.644 329.288 190.232C330.292 190.337 334.75 190.734 336.792 190.045C338.835 189.356 341.075 188.014 341.776 185.937C341.955 185.455 342.032 184.94 342.001 184.426C341.969 183.913 341.83 183.411 341.592 182.955C341.355 182.498 341.024 182.097 340.621 181.776C340.218 181.455 339.753 181.223 339.255 181.094C336.22 180.405 332.089 184.175 330.677 186.555C330.607 186.684 329.965 188.084 329.51 189.123C329.638 188.481 329.766 187.816 329.906 187.209C330.432 184.875 331.073 182.856 331.61 181.035C331.937 180.008 332.252 179.075 332.556 178.211C333.571 177.802 337.632 176.133 339.103 174.605C340.573 173.076 341.962 170.823 341.624 168.664C341.563 168.152 341.396 167.659 341.131 167.216C340.867 166.773 340.513 166.391 340.091 166.095C339.669 165.799 339.189 165.595 338.683 165.497C338.177 165.398 337.656 165.408 337.154 165.525C334.155 166.307 332.229 171.559 332.066 174.325C332.066 174.558 332.276 178.328 332.322 178.304H332.381C332.077 179.133 331.75 180.02 331.412 181C330.817 182.809 330.152 184.863 329.58 187.151C328.933 189.605 328.43 192.095 328.074 194.608C327.667 197.421 327.511 200.264 327.607 203.105V203.21C327.304 202.358 326.37 199.988 326.277 199.825C324.97 197.374 321.002 193.429 317.956 193.99C317.273 194.112 316.646 194.442 316.158 194.935C315.673 194.44 315.044 194.109 314.361 193.99C311.315 193.441 307.359 197.386 306.051 199.825C305.958 199.988 305.013 202.358 304.709 203.21C304.709 203.21 304.709 203.14 304.709 203.105C304.802 200.264 304.642 197.421 304.231 194.608C303.873 192.096 303.374 189.607 302.737 187.151C302.165 184.817 301.5 182.809 300.893 181C300.555 180.02 300.239 179.133 299.924 178.304H299.983C299.983 178.304 300.251 174.558 300.239 174.325C300.088 171.559 298.15 166.307 295.151 165.525C294.649 165.408 294.128 165.398 293.622 165.497C293.116 165.595 292.636 165.799 292.214 166.095C291.792 166.391 291.438 166.773 291.174 167.216C290.909 167.659 290.742 168.152 290.681 168.664C290.343 170.823 291.767 173.122 293.202 174.605C294.638 176.087 298.734 177.802 299.749 178.211C300.053 179.075 300.368 180.008 300.706 181.035C301.266 182.856 301.873 184.922 302.399 187.209C302.539 187.816 302.667 188.481 302.807 189.123C302.352 188.084 301.722 186.684 301.64 186.555C300.228 184.221 296.096 180.405 293.074 181.094C292.574 181.221 292.108 181.453 291.704 181.773C291.3 182.093 290.969 182.495 290.731 182.952C290.493 183.409 290.354 183.911 290.324 184.425C290.293 184.94 290.371 185.455 290.553 185.937C291.253 188.014 293.564 189.438 295.524 190.045C297.485 190.652 302.025 190.337 303.04 190.232C303.309 191.644 303.554 193.114 303.729 194.655C304.075 197.438 304.173 200.246 304.021 203.046C304.021 203.21 304.021 203.385 303.962 203.536C303.834 202.999 302.877 200.035 302.795 199.848C301.628 197.328 297.952 193.126 294.871 193.476C294.361 193.549 293.872 193.728 293.435 194.002C292.999 194.276 292.626 194.64 292.339 195.068C292.053 195.496 291.86 195.98 291.773 196.488C291.687 196.996 291.708 197.517 291.837 198.016C292.303 200.152 294.451 201.786 296.33 202.684C298.454 203.665 303.589 203.688 303.951 203.688C303.72 206.477 303.31 209.249 302.725 211.986C302.293 214.017 301.78 216.047 301.243 218.09C301.056 217.378 300.169 214.589 300.076 214.448C298.909 211.928 295.233 207.726 292.152 208.076C291.641 208.149 291.152 208.328 290.716 208.602C290.28 208.876 289.906 209.24 289.62 209.668C289.334 210.097 289.141 210.581 289.054 211.089C288.968 211.597 288.989 212.117 289.117 212.616C289.584 214.752 291.731 216.386 293.61 217.284C295.665 218.23 300.531 218.288 301.185 218.288C300.94 219.21 300.706 220.144 300.45 221.066C299.633 224.088 298.792 227.111 298.115 230.122C297.859 231.161 297.649 232.2 297.427 233.238C297.112 232.188 296.493 230.286 296.423 230.134C295.256 227.601 291.58 223.4 288.499 223.762C287.989 223.834 287.499 224.013 287.063 224.288C286.627 224.562 286.253 224.925 285.967 225.354C285.681 225.782 285.488 226.266 285.401 226.774C285.315 227.282 285.336 227.802 285.464 228.302C285.931 230.437 288.079 232.06 289.958 232.97C291.837 233.88 296.061 233.95 297.275 233.962C296.925 235.701 296.622 237.463 296.4 239.132C296.318 239.867 296.19 240.626 296.155 241.338C296.12 242.05 296.05 242.773 296.003 243.474C295.945 244.932 295.898 246.298 295.886 247.663C295.886 248.352 295.886 248.994 295.886 249.671C295.723 248.504 295.431 246.788 295.384 246.636C294.638 243.964 291.626 239.26 288.522 239.132C288.007 239.128 287.498 239.232 287.026 239.438C286.554 239.643 286.13 239.946 285.783 240.325C285.435 240.705 285.171 241.153 285.008 241.641C284.844 242.129 284.785 242.646 284.834 243.158C284.974 245.353 286.853 247.278 288.58 248.422C290.308 249.566 295.116 250.441 295.875 250.558C295.875 252.203 295.875 253.79 295.875 255.284C296.003 260.011 296.283 263.932 296.517 266.687C296.75 269.441 296.948 271.005 296.948 271.005C297.015 271.269 297.178 271.499 297.405 271.65C297.632 271.8 297.907 271.861 298.176 271.82C298.445 271.78 298.69 271.64 298.862 271.429C299.034 271.218 299.122 270.95 299.107 270.678C299.107 270.678 298.886 269.161 298.594 266.442C298.302 263.722 297.94 259.848 297.707 255.179C297.649 253.837 297.59 252.402 297.555 250.931C298.325 250.861 303.052 250.383 304.978 249.286C306.903 248.189 308.782 246.45 309.063 244.279C309.145 243.77 309.12 243.25 308.989 242.752C308.857 242.254 308.623 241.79 308.301 241.388C307.978 240.986 307.575 240.657 307.117 240.421C306.659 240.185 306.157 240.048 305.643 240.019C302.539 239.937 299.224 244.442 298.302 247.021C298.244 247.185 297.765 249.239 297.555 250.289C297.555 249.402 297.555 248.527 297.555 247.593C297.555 246.275 297.555 244.862 297.555 243.497C297.555 242.797 297.637 242.085 297.672 241.361C297.707 240.638 297.8 239.937 297.859 239.225C297.975 238.163 298.139 237.09 298.314 236.004C299.703 236.074 303.659 236.191 305.515 235.479C307.37 234.767 309.704 233.25 310.3 231.149C310.46 230.66 310.515 230.142 310.462 229.63C310.408 229.117 310.248 228.622 309.99 228.176C309.732 227.73 309.383 227.343 308.966 227.041C308.549 226.739 308.073 226.528 307.569 226.423C304.523 225.862 300.566 229.819 299.247 232.258L298.734 233.53C298.921 232.48 299.119 231.429 299.352 230.379C300.006 227.38 300.776 224.345 301.535 221.299L301.99 219.397C303.157 219.455 307.452 219.63 309.401 218.883C311.35 218.136 313.591 216.654 314.198 214.553C314.356 214.063 314.409 213.545 314.354 213.033C314.299 212.52 314.137 212.025 313.879 211.58C313.62 211.134 313.271 210.747 312.853 210.446C312.436 210.144 311.959 209.933 311.455 209.827C308.409 209.267 304.453 213.223 303.134 215.662C303.134 215.756 302.83 216.397 302.539 217.133C302.924 215.475 303.285 213.818 303.601 212.161C304.154 209.322 304.512 206.448 304.674 203.56C305.328 203.56 310.195 203.863 312.307 203.046C313.789 202.504 315.112 201.601 316.158 200.42C317.204 201.601 318.528 202.504 320.01 203.046C322.122 203.863 327.012 203.595 327.642 203.56C327.81 206.447 328.169 209.321 328.716 212.161C329.031 213.818 329.393 215.475 329.778 217.133C329.486 216.397 329.23 215.756 329.183 215.662C327.876 213.223 323.919 209.267 320.862 209.827C320.357 209.933 319.881 210.143 319.464 210.445C319.047 210.748 318.698 211.134 318.44 211.58C318.183 212.026 318.022 212.522 317.969 213.034C317.915 213.546 317.97 214.064 318.131 214.553C318.738 216.654 320.99 218.136 322.916 218.883C324.841 219.63 329.183 219.455 330.327 219.397C330.478 220.039 330.63 220.669 330.793 221.299C331.54 224.345 332.311 227.38 332.976 230.379C333.209 231.429 333.396 232.48 333.594 233.53C333.338 232.888 333.116 232.363 333.069 232.258C331.762 229.819 327.806 225.862 324.748 226.423C324.244 226.528 323.768 226.739 323.35 227.041C322.933 227.343 322.584 227.73 322.327 228.176C322.069 228.622 321.908 229.117 321.855 229.63C321.802 230.142 321.857 230.66 322.017 231.149C322.624 233.25 324.876 234.732 326.802 235.479C328.728 236.226 332.637 236.074 334.015 236.004C334.178 237.09 334.353 238.163 334.458 239.225C334.528 239.937 334.633 240.626 334.656 241.361C334.68 242.096 334.726 242.797 334.761 243.497C334.761 244.862 334.761 246.275 334.761 247.593C334.761 248.527 334.761 249.402 334.761 250.289C334.54 249.239 334.061 247.185 334.003 247.021C333.081 244.407 329.766 239.902 326.662 240.019C326.148 240.048 325.646 240.185 325.188 240.421C324.73 240.657 324.327 240.986 324.004 241.388C323.682 241.79 323.447 242.254 323.316 242.752C323.185 243.25 323.16 243.77 323.242 244.279C323.523 246.45 325.577 248.259 327.327 249.286C329.078 250.313 333.979 250.861 334.75 250.931C334.75 252.402 334.668 253.837 334.598 255.179C334.376 259.848 334.015 263.734 333.723 266.442C333.431 269.149 333.198 270.678 333.198 270.678C333.183 270.95 333.271 271.218 333.443 271.429C333.615 271.64 333.86 271.78 334.129 271.82C334.398 271.861 334.673 271.8 334.9 271.65C335.127 271.499 335.29 271.269 335.357 271.005C335.357 271.005 335.555 269.429 335.8 266.687C336.045 263.944 336.314 260.011 336.43 255.284C336.43 253.79 336.489 252.203 336.489 250.558C337.247 250.441 341.927 249.659 343.795 248.422C345.662 247.185 347.401 245.353 347.529 243.158C347.583 242.635 347.524 242.107 347.356 241.608C347.188 241.11 346.915 240.653 346.555 240.269C346.196 239.886 345.758 239.583 345.272 239.383C344.785 239.183 344.262 239.089 343.736 239.109Z" fill="#263238"/>
<path d="M64.771 298.489C64.771 298.489 64.9694 306.414 66.3116 310.662C67.2872 313.569 68.4569 316.408 69.8128 319.158C69.8128 319.158 64.7944 321.866 62.4719 322.064C60.1494 322.263 57.0684 311.817 57.0684 304.675C57.0684 297.532 59.7526 295.397 64.771 298.489Z" fill="white" stroke="#263238" stroke-width="0.48509" stroke-linecap="round" stroke-linejoin="round"/>
<path d="M50.778 277.727C50.778 277.727 58.9475 277.424 62.0636 279.746C65.1797 282.069 66.3118 292.304 67.2804 296.365L68.2491 300.427C65.9763 301.323 63.6344 302.034 61.2467 302.551C60.3365 302.618 59.4319 302.747 58.5391 302.936C58.5391 302.936 56.0765 288.885 53.1822 284.776C51.7186 282.663 50.1038 280.658 48.3505 278.778C48.3505 278.778 47.0434 277.214 50.778 277.727Z" fill="white" stroke="#263238" stroke-width="0.48509" stroke-linecap="round" stroke-linejoin="round"/>
<path d="M44.1023 265.251C43.4274 267.837 42.3859 270.313 41.0095 272.604C38.6754 276.467 37.7184 279.163 30.5759 279.361C23.4334 279.56 19.7571 285.383 16.6994 302.738C13.6417 320.092 11.8677 339.255 17.0845 351.428C22.3014 363.6 37.7067 362.41 47.7669 358.769C57.827 355.127 60.1378 343.702 60.3246 331.343C60.5113 318.983 60.523 299.458 58.5856 289.596C56.6483 279.735 51.058 277.622 48.5371 276.852C46.0163 276.082 49.3191 271.437 49.3191 271.437L44.1023 265.251Z" fill="white"/>
<mask id="mask1_1_9698" style="mask-type:luminance" maskUnits="userSpaceOnUse" x="13" y="265" width="48" height="97">
<path d="M44.1023 265.251C43.4274 267.837 42.3859 270.313 41.0095 272.604C38.6754 276.467 37.7184 279.163 30.5759 279.361C23.4334 279.56 19.7571 285.383 16.6994 302.738C13.6417 320.092 11.8677 339.255 17.0845 351.428C22.3014 363.6 37.7067 362.41 47.7669 358.769C57.827 355.127 60.1378 343.702 60.3246 331.343C60.5113 318.983 60.523 299.458 58.5856 289.596C56.6483 279.735 51.058 277.622 48.5371 276.852C46.0163 276.082 49.3191 271.437 49.3191 271.437L44.1023 265.251Z" fill="white"/>
</mask>
<g mask="url(#mask1_1_9698)">
<g style="mix-blend-mode:multiply" opacity="0.4">
<path d="M23.7013 303.169C23.7013 303.169 21.9974 307.838 25.0201 311.467C28.0428 315.097 35.5238 313.358 34.0766 315.05C32.6294 316.743 26.1522 318.832 25.0201 320.524C24.6884 320.95 24.4931 321.467 24.4598 322.006C24.4265 322.546 24.5567 323.082 24.8334 323.547C24.8334 323.547 18.8813 324.609 18.4612 323.605C18.041 322.601 21.9624 308.538 21.9624 308.538L23.7013 303.169Z" fill="#E3136D"/>
</g>
<g style="mix-blend-mode:multiply" opacity="0.4">
<path d="M25.5222 328.833C25.5222 328.833 21.3791 333.362 21.5659 334.669C21.7526 335.976 25.5222 332.977 24.7753 334.856C24.0284 336.735 20.8073 339.769 19.862 341.274C18.9166 342.78 15.1937 345.453 15.1937 345.453L13.8632 335.241L13.6064 333.455L25.5222 328.833Z" fill="#E3136D"/>
</g>
</g>
<path d="M44.1023 265.251C43.4274 267.837 42.3859 270.313 41.0095 272.604C38.6754 276.467 37.7184 279.163 30.5759 279.361C23.4334 279.56 19.7571 285.383 16.6994 302.738C13.6417 320.092 11.8677 339.255 17.0845 351.428C22.3014 363.6 37.7067 362.41 47.7669 358.769C57.827 355.127 60.1378 343.702 60.3246 331.343C60.5113 318.983 60.523 299.458 58.5856 289.596C56.6483 279.735 51.058 277.622 48.5371 276.852C46.0163 276.082 49.3191 271.437 49.3191 271.437L44.1023 265.251Z" stroke="#263238" stroke-width="0.48509" stroke-linecap="round" stroke-linejoin="round"/>
<path d="M50.778 277.727C50.0559 277.376 49.3065 277.083 48.5373 276.852C46.0281 276.082 49.3192 271.437 49.3192 271.437L44.1024 265.251C43.4275 267.837 42.386 270.313 41.0097 272.604C39.0373 275.883 38.0336 278.322 33.3887 279.104C34.8619 281.227 35.9375 283.6 36.5631 286.107C37.7302 291.137 40.2277 299.248 44.8727 297.322C49.2842 295.49 52.6337 284.905 50.778 277.727Z" fill="white"/>
<mask id="mask2_1_9698" style="mask-type:luminance" maskUnits="userSpaceOnUse" x="33" y="265" width="19" height="33">
<path d="M50.778 277.727C50.0559 277.376 49.3065 277.083 48.5373 276.852C46.0281 276.082 49.3192 271.437 49.3192 271.437L44.1024 265.251C43.4275 267.837 42.386 270.313 41.0097 272.604C39.0373 275.883 38.0336 278.322 33.3887 279.104C34.8619 281.227 35.9375 283.6 36.5631 286.107C37.7302 291.137 40.2277 299.248 44.8727 297.322C49.2842 295.49 52.6337 284.905 50.778 277.727Z" fill="white"/>
</mask>
<g mask="url(#mask2_1_9698)">
<g style="mix-blend-mode:multiply" opacity="0.4">
<path d="M38.7335 279.011C37.5097 279.88 36.143 280.528 34.6954 280.925L33.5283 278.929C33.5283 278.929 38.3483 279.525 43.1683 268.426C44.2165 270.481 45.6977 272.285 47.5098 273.713L41.7562 274.448" fill="#E3136D"/>
</g>
</g>
<path d="M50.778 277.727C50.0559 277.376 49.3065 277.083 48.5373 276.852C46.0281 276.082 49.3192 271.437 49.3192 271.437L44.1024 265.251C43.4275 267.837 42.386 270.313 41.0097 272.604C39.0373 275.883 38.0336 278.322 33.3887 279.104C34.8619 281.227 35.9375 283.6 36.5631 286.107C37.7302 291.137 40.2277 299.248 44.8727 297.322C49.2842 295.49 52.6337 284.905 50.778 277.727Z" stroke="#263238" stroke-width="0.48509" stroke-linecap="round" stroke-linejoin="round"/>
<path d="M24.1807 301.372L29.7359 296.435" stroke="#263238" stroke-width="0.48509" stroke-linecap="round" stroke-linejoin="round"/>
<path d="M30.5762 279.361C30.5762 279.361 32.2101 281.602 33.4472 288.091C34.6843 294.58 38.3839 300.45 42.0952 301.675C45.8065 302.901 47.6504 301.675 47.6504 301.675" stroke="#263238" stroke-width="0.48509" stroke-linecap="round" stroke-linejoin="round"/>
<path d="M12.2184 300.812C12.2184 300.812 9.3241 326.488 9.1257 330.946C8.92729 335.404 10.6662 334.237 13.5722 333.467C16.4783 332.696 33.0857 325.297 36.9137 323.99C40.7417 322.683 41.3602 322.251 44.453 322.636C47.1603 323.042 49.8873 323.303 52.6225 323.418C54.5598 323.418 52.4241 318.972 49.5297 318.201C46.6354 317.431 46.8221 317.618 43.5427 318.388C40.2632 319.158 35.0347 321.481 29.4328 322.636C23.8308 323.792 18.9991 324.188 18.4273 323.605C17.8554 323.021 21.9285 306.216 21.9285 306.216L12.2184 300.812Z" fill="white" stroke="#263238" stroke-width="0.48509" stroke-linecap="round" stroke-linejoin="round"/>
<path d="M33.3887 279.104C31.2344 279.361 29.0584 279.381 26.8998 279.163C24.9254 279.022 22.9433 279.295 21.0804 279.964C19.2175 280.634 17.5148 281.684 16.0811 283.049C12.9883 286.13 10.2457 296.179 9.07862 298.699C7.91155 301.22 7.53809 302.364 7.53809 302.364L21.8347 308.549L27.8218 291.545" fill="white"/>
<mask id="mask3_1_9698" style="mask-type:luminance" maskUnits="userSpaceOnUse" x="7" y="279" width="27" height="30">
<path d="M33.3887 279.104C31.2344 279.361 29.0584 279.381 26.8998 279.163C24.9254 279.022 22.9433 279.295 21.0804 279.964C19.2175 280.634 17.5148 281.684 16.0811 283.049C12.9883 286.13 10.2457 296.179 9.07862 298.699C7.91155 301.22 7.53809 302.364 7.53809 302.364L21.8347 308.549L27.8218 291.545" fill="white"/>
</mask>
<g mask="url(#mask3_1_9698)">
<g style="mix-blend-mode:multiply" opacity="0.4">
<path d="M33.2372 278.976C30.4273 279.278 27.602 279.415 24.776 279.384C23.0689 279.409 21.3884 279.811 19.855 280.562C18.3215 281.312 16.9731 282.393 15.9062 283.726C13.257 286.749 7.83008 302.247 7.83008 302.247L11.1562 303.671C11.1562 303.671 14.7742 286.749 18.9173 284.111C22.5597 281.94 26.7607 280.888 30.9965 281.088C32.1635 281.088 33.4706 281.007 34.2993 280.925L33.2372 278.976Z" fill="#E3136D"/>
</g>
</g>
<path d="M33.3887 279.104C31.2344 279.361 29.0584 279.381 26.8998 279.163C24.9254 279.022 22.9433 279.295 21.0804 279.964C19.2175 280.634 17.5148 281.684 16.0811 283.049C12.9883 286.13 10.2457 296.179 9.07862 298.699C7.91155 301.22 7.53809 302.364 7.53809 302.364L21.8347 308.549L27.8218 291.545" stroke="#263238" stroke-width="0.48509" stroke-linecap="round" stroke-linejoin="round"/>
<path d="M15.2178 343.737C15.2178 343.737 21.0531 338.485 25.1029 338.182" stroke="#263238" stroke-width="0.48509" stroke-linecap="round" stroke-linejoin="round"/>
<path d="M25.7215 335.661C22.8527 336.925 20.0658 338.367 17.377 339.979" stroke="#263238" stroke-width="0.48509" stroke-linecap="round" stroke-linejoin="round"/>
<path d="M61.9032 259.87C64.1832 250.813 61.8157 242.409 56.6153 241.1C51.4148 239.791 45.3507 246.072 43.0707 255.129C40.7907 264.186 43.1582 272.589 48.3586 273.899C53.5591 275.208 59.6232 268.927 61.9032 259.87Z" fill="white"/>
<mask id="mask4_1_9698" style="mask-type:luminance" maskUnits="userSpaceOnUse" x="42" y="240" width="21" height="35">
<path d="M61.9032 259.87C64.1832 250.813 61.8157 242.409 56.6153 241.1C51.4148 239.791 45.3507 246.072 43.0707 255.129C40.7907 264.186 43.1582 272.589 48.3586 273.899C53.5591 275.208 59.6232 268.927 61.9032 259.87Z" fill="white"/>
</mask>
<g mask="url(#mask4_1_9698)">
<g style="mix-blend-mode:multiply" opacity="0.4">
<path d="M47.3706 273.549C46.717 272.242 45.8534 269.103 46.472 267.119C47.4173 264.108 52.5057 260.723 52.5057 260.723C52.5057 260.723 50.1716 261.283 47.8374 261.645C45.5033 262.007 42.2705 262.532 42.2705 262.532L43.0758 268.181C44.1612 270.725 45.4799 272.802 47.3706 273.549Z" fill="#E3136D"/>
</g>
</g>
<path d="M61.9032 259.87C64.1832 250.813 61.8157 242.409 56.6153 241.1C51.4148 239.791 45.3507 246.072 43.0707 255.129C40.7907 264.186 43.1582 272.589 48.3586 273.899C53.5591 275.208 59.6232 268.927 61.9032 259.87Z" stroke="#263238" stroke-width="0.48509" stroke-linecap="round" stroke-linejoin="round"/>
<g style="mix-blend-mode:multiply" opacity="0.4">
<path d="M43.1452 268.682C42.2582 270.433 39.5039 275.895 36.6563 277.692C35.8525 278.21 34.9751 278.604 34.0537 278.859" fill="#E3136D"/>
</g>
<g style="mix-blend-mode:multiply" opacity="0.4">
<path d="M47.7902 297.322C47.7902 297.322 48.5488 308.071 47.7902 310.72C47.0316 313.369 44.0205 313.171 45.526 314.677C47.166 316.042 48.9369 317.242 50.8129 318.26L53.4505 320.909L54.0457 316.894C54.0457 316.894 52.155 317.466 50.2644 310.86C49.0577 306.426 48.23 301.897 47.7902 297.322Z" fill="#E3136D"/>
</g>
<path d="M56.7767 262.205C56.1635 263.094 55.764 264.112 55.6097 265.181C55.6097 265.531 55.6097 265.846 55.6097 266.103C55.6201 266.226 55.6038 266.349 55.5619 266.465C55.5201 266.581 55.4536 266.686 55.367 266.774C55.2805 266.862 55.176 266.929 55.0608 266.973C54.9455 267.016 54.8222 267.034 54.6994 267.025L53.3105 266.92" stroke="#263238" stroke-width="0.48509" stroke-linecap="round" stroke-linejoin="round"/>
<path d="M50.8362 269.721C50.191 269.793 49.5428 269.615 49.0242 269.225C48.5057 268.834 48.1561 268.26 48.0469 267.62" stroke="#263238" stroke-width="0.48509" stroke-linecap="round" stroke-linejoin="round"/>
<path d="M52.9372 261.855L52.237 263.255C51.8278 263.451 51.3655 263.505 50.9222 263.41C50.4788 263.315 50.0794 263.076 49.7861 262.73" stroke="#263238" stroke-width="0.48509" stroke-linecap="round" stroke-linejoin="round"/>
<path d="M58.5154 263.956L57.4767 265.356C57.4767 265.356 56.0762 265.356 56.0762 264.306" stroke="#263238" stroke-width="0.48509" stroke-linecap="round" stroke-linejoin="round"/>
<path d="M64.0477 251.538C66.3818 244.664 60.6982 237.533 52.2136 237.685C43.729 237.837 37.7886 246.135 34.9759 251.818C32.3458 254.454 30.0845 257.434 28.2536 260.676C24.7524 266.663 24.7524 270.141 22.0681 274.004C19.3839 277.867 11.4478 278.066 6.80282 283.096C2.15788 288.126 2.13453 293.915 4.29362 297.778C6.4527 301.641 7.79483 306.659 5.06389 310.137C2.33294 313.615 -0.339655 318.306 1.78442 326.184C2.18392 327.943 3.11094 329.538 4.44154 330.756C5.77214 331.974 7.44287 332.757 9.23033 333C9.11378 332.341 9.0785 331.671 9.1253 331.004C9.27701 327.503 11.051 311.386 11.8329 304.255L7.58476 302.411C7.58476 302.411 7.96989 301.244 9.1253 298.746C10.2807 296.249 12.9883 286.177 16.1277 283.096C17.5624 281.733 19.2656 280.685 21.1285 280.017C22.9913 279.35 24.9729 279.079 26.9465 279.221C29.1051 279.44 31.2811 279.42 33.4354 279.163C34.7366 279.004 35.9797 278.532 37.0574 277.785C38.135 277.039 39.0149 276.042 39.6209 274.88L39.9243 274.378V274.319C40.2511 273.783 40.5779 273.211 40.9397 272.615C41.7776 271.204 42.4959 269.724 43.0871 268.192C42.498 266.366 42.1834 264.462 42.1534 262.544C45.9581 262.415 56.4851 261.482 61.8069 255.226C62.122 254.841 62.4138 254.456 62.6706 254.059C62.5945 256.028 62.3129 257.984 61.8303 259.894C60.8483 264.283 58.6335 268.299 55.4464 271.472L54.8862 271.95L54.5361 272.23C54.361 272.359 54.1976 272.487 54.0226 272.592C53.8996 272.682 53.771 272.764 53.6374 272.837C53.4793 272.943 53.3157 273.04 53.1473 273.129L52.7388 273.339L52.2486 273.549L51.8401 273.701L51.35 273.853L50.9415 273.958C50.0696 274.156 49.1641 274.156 48.2922 273.958L47.9538 273.841C47.5824 274.538 47.4629 275.342 47.6153 276.117C47.6754 276.312 47.7858 276.488 47.9353 276.627C48.0848 276.767 48.2682 276.864 48.4673 276.91C49.2164 277.135 49.9462 277.42 50.6497 277.762C50.2052 282.48 49.4252 287.16 48.3156 291.767C46.3782 299.878 48.5023 307.604 50.8248 313.206C53.1472 318.808 60.2897 322.286 62.7989 319.042C65.3081 315.797 64.5379 312.284 62.9973 304.547C61.4568 296.809 57.3954 285.617 57.3954 277.109C57.3954 268.601 62.4138 265.905 64.9347 260.886C66.7436 257.257 65.1331 253.429 64.0477 251.538Z" fill="#263238"/>
<path d="M61.6897 248.936C61.6897 248.936 52.7733 256.743 44.1837 257.584C35.594 258.424 34.707 258.412 34.707 258.412" stroke="white" stroke-width="0.345985" stroke-linecap="round" stroke-linejoin="round"/>
<path d="M59.741 243.077C59.741 243.077 51.6532 252.285 44.9659 254.514C38.2786 256.743 35.4893 256.743 35.4893 256.743" stroke="white" stroke-width="0.345985" stroke-linecap="round" stroke-linejoin="round"/>
<path d="M55.0032 239.739C55.0032 239.739 52.7741 246.741 47.4756 250.056" stroke="white" stroke-width="0.345985" stroke-linecap="round" stroke-linejoin="round"/>
<path d="M39.6677 265.94C39.6677 265.94 39.3876 274.868 34.3692 276.257C29.3507 277.645 23.7838 274.868 17.3649 278.206C14.8597 279.553 12.8243 281.632 11.5296 284.165C10.2349 286.698 9.74231 289.566 10.1174 292.386" stroke="white" stroke-width="0.345985" stroke-linecap="round" stroke-linejoin="round"/>
<path d="M8.16876 330.059C6.83917 328.129 5.95027 325.931 5.56504 323.62C5.17982 321.308 5.30771 318.94 5.93965 316.684C8.16876 309.156 9.83767 306.367 9.83767 306.367" stroke="white" stroke-width="0.345985" stroke-linecap="round" stroke-linejoin="round"/>
<path d="M57.5469 280.435C57.5469 280.435 58.9357 291.032 54.1974 297.719C49.4591 304.406 52.5285 313.615 52.5285 313.615" stroke="white" stroke-width="0.345985" stroke-linecap="round" stroke-linejoin="round"/>
<path d="M57.7924 270.678C57.7924 270.678 58.0725 273.748 54.1628 281.555C50.2531 289.363 49.1444 291.872 48.8643 297.451" stroke="white" stroke-width="0.345985" stroke-linecap="round" stroke-linejoin="round"/>
<path d="M84.5536 359.446C84.5536 359.446 90.8208 358.839 94.4504 360.449C98.08 362.06 98.897 364.686 99.7022 362.27C100.508 359.854 100.508 358.43 97.4848 356.82C94.4621 355.209 93.2367 356.213 92.0346 354.999C91.4444 354.366 90.7641 353.823 90.0155 353.389C90.0155 353.389 86.7828 352.98 86.5727 354.801C86.3626 356.621 83.3516 357.217 83.3516 357.217L84.5536 359.446Z" fill="white" stroke="#263238" stroke-width="0.48509" stroke-miterlimit="10"/>
<path d="M110.754 312.016C108.63 307.184 99.772 310.499 89.5018 318.773C76.2088 329.487 65.8802 331.984 60.325 332.416V332.241C57.4306 330.887 53.3225 330.829 48.4325 331.623C48.2808 331.401 48.1291 331.179 47.989 330.946C38.6524 316.462 36.2016 313.953 33.1088 316.462C30.0161 318.972 26.5382 322.835 27.6936 334.82C27.7967 335.763 27.9763 336.696 28.2305 337.61C23.6342 339.794 19.2639 342.425 15.1826 345.464C15.6316 347.505 16.2644 349.501 17.0733 351.428C22.2667 363.565 37.6487 362.457 47.6972 358.804C50.7358 360.447 54.0374 361.549 57.454 362.06C65.4134 363.052 70.7936 362.76 73.9447 361.558L79.2899 365.923C87.7037 359.539 94.8318 351.619 100.297 342.581C102.962 338.075 105.324 333.396 107.37 328.577C110.696 321.049 111.828 314.443 110.754 312.016Z" fill="#263238"/>
<path d="M47.9655 330.899C49.0783 332.639 50.2942 334.311 51.6068 335.906L87.8911 329.393L76.4654 320.244L44.1025 324.982C45.2113 326.686 46.5067 328.67 47.9655 330.899Z" fill="#E3136D" stroke="#263238" stroke-width="0.48509" stroke-linecap="round" stroke-linejoin="round"/>
<path opacity="0.5" d="M47.9655 330.899C49.0783 332.639 50.2942 334.311 51.6068 335.906L87.8911 329.393L76.4654 320.244L44.1025 324.982C45.2113 326.686 46.5067 328.67 47.9655 330.899Z" fill="white" stroke="#263238" stroke-width="0.52825" stroke-linecap="round" stroke-linejoin="round"/>
<path d="M56.0412 309.46L50.3926 334.4C50.7894 334.925 51.1979 335.439 51.5597 335.941L87.8906 329.393L95.0681 303.274L56.0412 309.46Z" fill="#E3136D" stroke="#263238" stroke-width="0.48509" stroke-linecap="round" stroke-linejoin="round"/>
<path d="M74.5277 323.967C73.8251 324.166 73.0794 324.153 72.3839 323.931C71.6884 323.708 71.074 323.285 70.6177 322.715C70.1613 322.145 69.8833 321.453 69.8184 320.726C69.7535 319.999 69.9046 319.268 70.2528 318.626C70.6011 317.984 71.1309 317.46 71.776 317.117C72.4211 316.775 73.1528 316.631 73.8795 316.703C74.6063 316.774 75.2957 317.059 75.8614 317.521C76.4272 317.982 76.8442 318.601 77.0602 319.298C77.3363 320.253 77.2254 321.278 76.7515 322.152C76.2775 323.026 75.4786 323.677 74.5277 323.967Z" fill="white"/>
<path opacity="0.5" d="M56.0412 309.46L50.3926 334.4C50.7894 334.925 51.1979 335.439 51.5597 335.941L87.8906 329.393L95.0681 303.274L56.0412 309.46Z" fill="white" stroke="#263238" stroke-width="0.52825" stroke-linecap="round" stroke-linejoin="round"/>
<path d="M74.5277 323.967C73.8251 324.166 73.0794 324.153 72.3839 323.931C71.6884 323.708 71.074 323.285 70.6177 322.715C70.1613 322.145 69.8833 321.453 69.8184 320.726C69.7535 319.999 69.9046 319.268 70.2528 318.626C70.6011 317.984 71.1309 317.46 71.776 317.117C72.4211 316.775 73.1528 316.631 73.8795 316.703C74.6063 316.774 75.2957 317.059 75.8614 317.521C76.4272 317.982 76.8442 318.601 77.0602 319.298C77.3363 320.253 77.2254 321.278 76.7515 322.152C76.2775 323.026 75.4786 323.677 74.5277 323.967Z" fill="white" stroke="#263238" stroke-width="0.52825" stroke-linecap="round" stroke-linejoin="round"/>
<path d="M72.7189 359.527C72.7189 359.527 67.7239 363.239 64.9112 364.779C62.0986 366.32 61.1999 365.795 58.504 368.362C55.8081 370.93 53.5206 372.715 52.8787 373.742C52.2368 374.769 51.4665 375.785 51.0814 373.486C50.9239 372.306 51.0781 371.106 51.5286 370.004C51.979 368.902 52.7101 367.938 53.649 367.207C55.4346 365.923 57.8738 365.409 57.8738 363.705C57.815 362.961 58.0494 362.224 58.5269 361.65C59.0045 361.077 59.6873 360.713 60.4297 360.636C61.8418 360.636 62.7638 362.037 65.4247 360.636C67.2537 359.506 68.7546 357.917 69.7779 356.026L72.7189 359.527Z" fill="white" stroke="#263238" stroke-width="0.48509" stroke-miterlimit="10"/>
<path d="M28.5342 338.894C28.5342 338.894 34.0544 352.093 46.7755 358.092" stroke="white" stroke-width="0.345985" stroke-miterlimit="10"/>
<path d="M71.4473 349.7C71.4473 349.7 79.3483 345.744 90.9257 325.74" stroke="white" stroke-width="0.345985" stroke-miterlimit="10"/>
<path d="M50.2646 334.809C50.2646 334.809 58.6326 347.075 68.3893 351.253" stroke="white" stroke-width="0.345985" stroke-miterlimit="10"/>
<path d="M200.444 209.932H128.785C123.842 209.932 119.834 213.94 119.834 218.883V370.159C119.834 375.103 123.842 379.111 128.785 379.111H200.444C205.387 379.111 209.395 375.103 209.395 370.159V218.883C209.395 213.94 205.387 209.932 200.444 209.932Z" fill="#263238"/>
<path d="M205.415 228.512H123.813V360.543H205.415V228.512Z" fill="white"/>
<mask id="mask5_1_9698" style="mask-type:luminance" maskUnits="userSpaceOnUse" x="123" y="228" width="83" height="133">
<path d="M205.415 228.512H123.813V360.543H205.415V228.512Z" fill="white"/>
</mask>
<g mask="url(#mask5_1_9698)">
<g style="mix-blend-mode:multiply" opacity="0.4">
<path d="M205.415 316.17L129.346 360.531H205.415V316.17Z" fill="#E3136D"/>
</g>
</g>
<path d="M205.415 228.512H123.813V360.543H205.415V228.512Z" stroke="#263238" stroke-width="0.52825" stroke-miterlimit="10"/>
<path d="M173.485 219.268H155.745C155.436 219.268 155.139 219.145 154.92 218.927C154.701 218.708 154.578 218.411 154.578 218.101C154.578 217.792 154.701 217.495 154.92 217.276C155.139 217.057 155.436 216.934 155.745 216.934H173.485C173.794 216.934 174.091 217.057 174.31 217.276C174.529 217.495 174.652 217.792 174.652 218.101C174.652 218.411 174.529 218.708 174.31 218.927C174.091 219.145 173.794 219.268 173.485 219.268Z" fill="#E3136D"/>
<path opacity="0.4" d="M173.485 219.268H155.745C155.436 219.268 155.139 219.145 154.92 218.927C154.701 218.708 154.578 218.411 154.578 218.101C154.578 217.792 154.701 217.495 154.92 217.276C155.139 217.057 155.436 216.934 155.745 216.934H173.485C173.794 216.934 174.091 217.057 174.31 217.276C174.529 217.495 174.652 217.792 174.652 218.101C174.652 218.411 174.529 218.708 174.31 218.927C174.091 219.145 173.794 219.268 173.485 219.268Z" fill="white"/>
<path d="M169.458 367.988C169.458 367.03 169.174 366.094 168.642 365.298C168.11 364.501 167.353 363.88 166.468 363.514C165.583 363.147 164.609 363.051 163.67 363.238C162.73 363.425 161.867 363.886 161.19 364.564C160.513 365.241 160.051 366.104 159.865 367.043C159.678 367.983 159.774 368.957 160.14 369.842C160.507 370.727 161.128 371.483 161.924 372.015C162.721 372.548 163.657 372.832 164.615 372.832C165.899 372.832 167.131 372.321 168.04 371.413C168.948 370.505 169.458 369.273 169.458 367.988Z" fill="#E3136D" stroke="#263238" stroke-width="0.704333" stroke-miterlimit="10"/>
<path d="M167.066 365.538H162.164V370.439H167.066V365.538Z" fill="#E3136D" stroke="#263238" stroke-width="0.52825" stroke-linecap="round" stroke-linejoin="round"/>
<path opacity="0.6" d="M167.066 365.538H162.164V370.439H167.066V365.538Z" fill="white" stroke="#263238" stroke-width="0.52825" stroke-linecap="round" stroke-linejoin="round"/>
<path d="M167.066 365.538H162.164V370.439H167.066V365.538Z" stroke="#263238" stroke-width="0.52825" stroke-linecap="round" stroke-linejoin="round"/>
<path d="M442.891 366.483V262.065C442.891 254.859 437.049 249.017 429.843 249.017L209.418 249.017C202.212 249.017 196.37 254.859 196.37 262.065V366.483C196.37 373.689 202.212 379.531 209.418 379.531H429.843C437.049 379.531 442.891 373.689 442.891 366.483Z" fill="#E3136D" stroke="#263238" stroke-width="0.868674" stroke-miterlimit="10"/>
<path d="M429.749 373.731V254.818H209.511V373.731H429.749Z" fill="white"/>
<mask id="mask6_1_9698" style="mask-type:luminance" maskUnits="userSpaceOnUse" x="209" y="254" width="221" height="120">
<path d="M429.75 373.731V254.818H209.512V373.731H429.75Z" fill="white"/>
</mask>
<g mask="url(#mask6_1_9698)">
<g style="mix-blend-mode:multiply" opacity="0.4">
<path d="M429.75 278.684L266.792 373.719H429.75V278.684Z" fill="#E3136D"/>
</g>
</g>
<path d="M429.749 373.731V254.818H209.511V373.731H429.749Z" stroke="#263238" stroke-width="0.651505" stroke-miterlimit="10"/>
<path d="M435.678 316.054C435.322 316.054 434.974 315.948 434.678 315.75C434.383 315.552 434.152 315.271 434.017 314.942C433.881 314.612 433.846 314.25 433.916 313.902C433.987 313.553 434.159 313.232 434.411 312.982C434.664 312.731 434.985 312.56 435.335 312.492C435.684 312.424 436.046 312.462 436.374 312.599C436.702 312.737 436.982 312.969 437.178 313.267C437.374 313.564 437.478 313.912 437.475 314.268C437.472 314.743 437.282 315.197 436.945 315.532C436.608 315.866 436.153 316.054 435.678 316.054Z" fill="#263238"/>
<path d="M403.771 250.208H411.648C411.887 250.208 412.08 250.014 412.08 249.776V249.449C412.08 249.21 411.887 249.017 411.648 249.017H403.771C403.532 249.017 403.339 249.21 403.339 249.449V249.776C403.339 250.014 403.532 250.208 403.771 250.208Z" fill="#E3136D" stroke="#263238" stroke-width="0.652671" stroke-miterlimit="10"/>
<path d="M375.948 250.196H391.038C391.117 250.197 391.196 250.183 391.269 250.154C391.343 250.125 391.41 250.081 391.466 250.026C391.523 249.97 391.568 249.904 391.598 249.831C391.629 249.758 391.645 249.68 391.645 249.601C391.645 249.522 391.629 249.443 391.598 249.37C391.568 249.297 391.523 249.231 391.466 249.176C391.41 249.12 391.343 249.077 391.269 249.047C391.196 249.018 391.117 249.004 391.038 249.005H375.948C375.79 249.005 375.639 249.068 375.527 249.18C375.415 249.291 375.353 249.443 375.353 249.601C375.353 249.759 375.415 249.91 375.527 250.022C375.639 250.133 375.79 250.196 375.948 250.196Z" fill="#E3136D" stroke="#263238" stroke-width="0.652671" stroke-miterlimit="10"/>
<path d="M417.414 382.834C417.414 384.573 407.004 385.985 394.166 385.985C381.328 385.985 370.906 384.584 370.906 382.834C370.906 381.083 381.317 379.671 394.166 379.671C407.015 379.671 417.414 381.083 417.414 382.834Z" fill="#E3136D"/>
<path d="M374.15 336.057C374.15 362.62 395.158 384.141 395.158 384.141C395.158 384.141 416.165 362.62 416.165 336.057C416.165 309.495 395.158 287.974 395.158 287.974C395.158 287.974 374.15 309.495 374.15 336.057Z" fill="#263238"/>
<path d="M395.192 384.141V287.974" stroke="white" stroke-width="0.738" stroke-miterlimit="10"/>
<path d="M395.193 322.158L383.405 311.876" stroke="white" stroke-width="0.738" stroke-miterlimit="10"/>
<path d="M395.38 338.053L409.957 316.917" stroke="white" stroke-width="0.738" stroke-miterlimit="10"/>
<path d="M395.193 347.215L377.804 331.693" stroke="white" stroke-width="0.738" stroke-miterlimit="10"/>
<path d="M395.38 359.551L412.583 344.215" stroke="white" stroke-width="0.738" stroke-miterlimit="10"/>
<path d="M395.379 370.206L381.911 359.551" stroke="white" stroke-width="0.738" stroke-miterlimit="10"/>
<path d="M359.574 370.58C369.797 382.11 387.198 383.347 387.198 383.347C387.198 383.347 388.05 365.923 377.862 354.392C367.673 342.862 350.237 341.625 350.237 341.625C350.237 341.625 349.315 359.107 359.574 370.58Z" fill="#263238"/>
<path d="M387.198 383.394L350.202 341.671" stroke="white" stroke-width="0.738" stroke-miterlimit="10"/>
<path d="M363.355 356.505L354.287 356.575" stroke="white" stroke-width="0.738" stroke-miterlimit="10"/>
<path d="M369.552 363.332L367.743 348.557" stroke="white" stroke-width="0.738" stroke-miterlimit="10"/>
<path d="M372.995 367.37L359.48 367.335" stroke="white" stroke-width="0.738" stroke-miterlimit="10"/>
<path d="M377.827 372.657L379.391 359.387" stroke="white" stroke-width="0.738" stroke-miterlimit="10"/>
<path d="M381.923 377.279L371.979 377.839" stroke="white" stroke-width="0.738" stroke-miterlimit="10"/>
<path d="M413.189 354.042C402.452 365.083 402.511 382.542 402.511 382.542C402.511 382.542 419.958 382.087 430.684 371.035C441.409 359.983 441.363 342.57 441.363 342.57C441.363 342.57 423.915 342.99 413.189 354.042Z" fill="#263238"/>
<path d="M402.511 382.542L441.363 342.535" stroke="white" stroke-width="0.738" stroke-miterlimit="10"/>
<path d="M427.556 356.75L426.809 347.717" stroke="white" stroke-width="0.738" stroke-miterlimit="10"/>
<path d="M421.207 363.437L435.807 360.543" stroke="white" stroke-width="0.738" stroke-miterlimit="10"/>
<path d="M417.426 367.172L416.469 353.692" stroke="white" stroke-width="0.738" stroke-miterlimit="10"/>
<path d="M412.523 372.388L425.875 372.949" stroke="white" stroke-width="0.738" stroke-miterlimit="10"/>
<path d="M408.217 376.823L406.922 366.95" stroke="white" stroke-width="0.738" stroke-miterlimit="10"/>
</svg>
