<svg xmlns="http://www.w3.org/2000/svg" xmlns:xlink="http://www.w3.org/1999/xlink" viewBox="0 0 404 984">
    <defs>
      <linearGradient id="linear-gradient" x1="0.532" y1="-0.144" x2="0.5" y2="0.891" gradientUnits="objectBoundingBox">
        <stop offset="0" stop-color="#ffb44d"/>
        <stop offset="1" stop-color="#630ba1"/>
      </linearGradient>
    </defs>
    <g id="Group_301" data-name="Group 301" transform="translate(0 -119)">
      <rect id="Rectangle_157" data-name="Rectangle 157" width="404" height="984" transform="translate(0 119)" opacity="0.995" fill="url(#linear-gradient)"/>
      <g id="星星_1_" data-name="星星 (1)" transform="translate(55.235 470.012) rotate(-15)" opacity="0.154">
        <path id="Path_126" data-name="Path 126" d="M134.191,152.005l5.569-1.486,1.484-5.567-10.964-6.347a1.784,1.784,0,0,0-2.437,2.437Zm22.664-1.486L162.422,152l6.346-10.962a1.783,1.783,0,0,0-2.435-2.437l-10.964,6.347Zm-17.1,17.1-5.569-1.484-6.347,10.964a1.781,1.781,0,1,0,2.435,2.437l10.967-6.349-1.486-5.567Zm22.66-1.484-5.565,1.484-1.486,5.569,10.964,6.347a1.784,1.784,0,0,0,2.435-2.438Z" transform="translate(-119.768 -130.528)" fill="#f0e8c4"/>
        <path id="Path_127" data-name="Path 127" d="M55.771,26.832,35.646,21.465,30.279,1.34a1.784,1.784,0,0,0-3.446,0L21.465,21.465,1.34,26.832a1.784,1.784,0,0,0,0,3.446l20.126,5.367,5.367,20.126a1.784,1.784,0,1,0,3.446,0l5.367-20.126,20.126-5.367a1.784,1.784,0,1,0,0-3.446Z" transform="translate(-0.016 -0.016)" fill="#f0e8c4"/>
        <path id="Path_128" data-name="Path 128" d="M134.191,152.005l5.569-1.486,1.484-5.567-10.964-6.347a1.784,1.784,0,0,0-2.437,2.437Zm28.231,0,6.346-10.962a1.783,1.783,0,0,0-2.435-2.437l-10.964,6.347,1.486,5.567Zm-28.231,14.127-6.347,10.964a1.781,1.781,0,1,0,2.435,2.437l10.967-6.349-1.486-5.567-5.569-1.484Zm28.229,0-5.565,1.484-1.486,5.569,10.964,6.347a1.784,1.784,0,0,0,2.435-2.438Z" transform="translate(-119.768 -130.528)" fill="#f0e8c4"/>
        <path id="Path_129" data-name="Path 129" d="M28.539,57.079a1.784,1.784,0,0,0,1.723-1.323L35.63,35.63l-7.09-7.09ZM1.324,30.262,21.449,35.63l7.09-7.09H0a1.784,1.784,0,0,0,1.323,1.723ZM26.816,1.324,21.449,21.449l7.09,7.09V0a1.784,1.784,0,0,0-1.723,1.323ZM55.755,26.816,35.63,21.449l-7.09,7.09H57.079a1.784,1.784,0,0,0-1.323-1.723ZM42.652,35.6l-5.565,1.484L48.719,48.719A1.784,1.784,0,0,0,49,46.565ZM48.716,8.359a1.777,1.777,0,0,0-2.151-.282L35.6,14.425l1.486,5.565ZM14.423,21.478l5.567-1.486L8.356,8.363a1.78,1.78,0,0,0-.28,2.151ZM8.359,48.723a1.78,1.78,0,0,0,2.151.28l10.967-6.349-1.486-5.565Z" fill="#f0e8c4" opacity="0.1"/>
      </g>
      <g id="Group_297" data-name="Group 297" transform="translate(300.283 467.5)" opacity="0.153">
        <g id="Group_295" data-name="Group 295" transform="translate(0 0)">
          <path id="截圖_2022-12-09_18.58.50" data-name="截圖 2022-12-09 18.58.50" d="M31.877,14.356c17.678-.322,32.069-3.791,32.142-7.749S49.821-.3,32.143.024.074,3.815,0,7.773,14.2,14.678,31.877,14.356Z" transform="matrix(-0.848, -0.53, 0.53, -0.848, 54.292, 46.12)" fill="#d1d1d1"/>
          <path id="截圖_2022-12-09_18.58.50-2" data-name="截圖 2022-12-09 18.58.50" d="M25.567,11.486C39.76,11.164,51.325,8.338,51.4,5.175S40.025-.292,25.832.03.074,3.177,0,6.341,11.373,11.807,25.567,11.486Z" transform="matrix(-0.848, -0.53, 0.53, -0.848, 49.699, 41.562)" fill="#d1d1d1"/>
        </g>
        <ellipse id="截圖_2022-12-09_18.57.50" data-name="截圖 2022-12-09 18.57.50" cx="17.826" cy="17.826" rx="17.826" ry="17.826" transform="translate(13.13 40.886) rotate(-90)" fill="#d1d1d1"/>
        <ellipse id="截圖_2022-12-09_18.57.50-2" data-name="截圖 2022-12-09 18.57.50" cx="4.762" cy="17.826" rx="4.762" ry="17.826" transform="translate(13.13 27.822) rotate(-90)" fill="#d1d1d1" opacity="0.377"/>
        <ellipse id="截圖_2022-12-09_18.57.50-3" data-name="截圖 2022-12-09 18.57.50" cx="3.718" cy="13.309" rx="3.718" ry="13.309" transform="translate(17.703 38.011) rotate(-90)" fill="#d1d1d1"/>
        <ellipse id="截圖_2022-12-09_18.57.50-4" data-name="截圖 2022-12-09 18.57.50" cx="4.033" cy="15.099" rx="4.033" ry="15.099" transform="translate(15.912 18.023) rotate(-90)" fill="#d1d1d1" opacity="0.474"/>
      </g>
      <g id="Group_298" data-name="Group 298" transform="translate(15355.959 -3115.311)" opacity="0.153">
        <g id="Group_295-2" data-name="Group 295" transform="translate(-15271.959 3995.887)">
          <path id="截圖_2022-12-09_18.58.50-3" data-name="截圖 2022-12-09 18.58.50" d="M60.734.046c33.682.613,61.1,7.223,61.24,14.764S94.922,27.965,61.24,27.352.14,20.129,0,12.589,27.052-.567,60.734.046Z" transform="matrix(0.848, -0.53, 0.53, 0.848, 0, 64.637)" fill="#d1d1d1"/>
          <path id="截圖_2022-12-09_18.58.50-4" data-name="截圖 2022-12-09 18.58.50" d="M48.711.057c27.042.613,49.077,6,49.217,12.023s-21.669,10.416-48.71,9.8S.14,15.887,0,9.86,21.669-.556,48.711.057Z" transform="matrix(0.848, -0.53, 0.53, 0.848, 11.642, 60.579)" fill="#d1d1d1"/>
        </g>
        <circle id="截圖_2022-12-09_18.57.50-5" data-name="截圖 2022-12-09 18.57.50" cx="33.964" cy="33.964" r="33.964" transform="translate(-15246.943 4073.786) rotate(-90)" fill="#d1d1d1"/>
        <ellipse id="截圖_2022-12-09_18.57.50-6" data-name="截圖 2022-12-09 18.57.50" cx="9.073" cy="33.964" rx="9.073" ry="33.964" transform="translate(-15246.943 4048.895) rotate(-90)" fill="#d1d1d1" opacity="0.377"/>
        <ellipse id="截圖_2022-12-09_18.57.50-7" data-name="截圖 2022-12-09 18.57.50" cx="7.084" cy="25.357" rx="7.084" ry="25.357" transform="translate(-15238.441 4068.307) rotate(-90)" fill="#d1d1d1"/>
        <ellipse id="截圖_2022-12-09_18.57.50-8" data-name="截圖 2022-12-09 18.57.50" cx="7.684" cy="28.768" rx="7.684" ry="28.768" transform="translate(-15241.853 4030.225) rotate(-90)" fill="#d1d1d1" opacity="0.474"/>
      </g>
      <g id="Group_299" data-name="Group 299" transform="translate(15334.459 -3369.372)" opacity="0.153">
        <g id="Group_295-3" data-name="Group 295" transform="translate(-15271.959 3995.887)">
          <path id="截圖_2022-12-09_18.58.50-5" data-name="截圖 2022-12-09 18.58.50" d="M26.773.02c14.848.27,26.935,3.184,27,6.508S41.845,12.328,27,12.058.062,8.873,0,5.549,11.925-.25,26.773.02Z" transform="matrix(0.848, -0.53, 0.53, 0.848, 0, 28.494)" fill="#d1d1d1"/>
          <path id="截圖_2022-12-09_18.58.50-6" data-name="截圖 2022-12-09 18.58.50" d="M21.473.025c11.921.27,21.635,2.643,21.7,5.3S33.617,9.917,21.7,9.647.062,7,0,4.346,9.553-.245,21.473.025Z" transform="matrix(0.848, -0.53, 0.53, 0.848, 5.132, 26.705)" fill="#d1d1d1"/>
        </g>
        <circle id="截圖_2022-12-09_18.57.50-9" data-name="截圖 2022-12-09 18.57.50" cx="14.972" cy="14.972" r="14.972" transform="translate(-15260.932 4030.227) rotate(-90)" fill="#d1d1d1"/>
        <ellipse id="截圖_2022-12-09_18.57.50-10" data-name="截圖 2022-12-09 18.57.50" cx="3.999" cy="14.972" rx="3.999" ry="14.972" transform="translate(-15260.932 4019.254) rotate(-90)" fill="#d1d1d1" opacity="0.377"/>
        <ellipse id="截圖_2022-12-09_18.57.50-11" data-name="截圖 2022-12-09 18.57.50" cx="3.123" cy="11.178" rx="3.123" ry="11.178" transform="translate(-15257.184 4027.812) rotate(-90)" fill="#d1d1d1"/>
        <ellipse id="截圖_2022-12-09_18.57.50-12" data-name="截圖 2022-12-09 18.57.50" cx="3.388" cy="12.682" rx="3.388" ry="12.682" transform="translate(-15258.688 4011.024) rotate(-90)" fill="#d1d1d1" opacity="0.474"/>
      </g>
      <g id="Group_300" data-name="Group 300" transform="translate(218 239.94)" opacity="0.153">
        <g id="Group_295-4" data-name="Group 295" transform="translate(0 0)">
          <path id="截圖_2022-12-09_18.58.50-7" data-name="截圖 2022-12-09 18.58.50" d="M31.877.024C49.555.346,63.946,3.815,64.019,7.773s-14.2,6.905-31.877,6.583S.074,10.565,0,6.607,14.2-.3,31.877.024Z" transform="matrix(0.848, -0.53, 0.53, 0.848, 0, 33.925)" fill="#d1d1d1"/>
          <path id="截圖_2022-12-09_18.58.50-8" data-name="截圖 2022-12-09 18.58.50" d="M25.567.03C39.76.352,51.325,3.177,51.4,6.341s-11.373,5.467-25.566,5.145S.074,8.338,0,5.175,11.373-.292,25.567.03Z" transform="matrix(0.848, -0.53, 0.53, 0.848, 6.111, 31.796)" fill="#d1d1d1"/>
        </g>
        <ellipse id="截圖_2022-12-09_18.57.50-13" data-name="截圖 2022-12-09 18.57.50" cx="17.826" cy="17.826" rx="17.826" ry="17.826" transform="translate(13.13 40.886) rotate(-90)" fill="#d1d1d1"/>
        <ellipse id="截圖_2022-12-09_18.57.50-14" data-name="截圖 2022-12-09 18.57.50" cx="4.762" cy="17.826" rx="4.762" ry="17.826" transform="translate(13.13 27.822) rotate(-90)" fill="#d1d1d1" opacity="0.377"/>
        <ellipse id="截圖_2022-12-09_18.57.50-15" data-name="截圖 2022-12-09 18.57.50" cx="3.718" cy="13.309" rx="3.718" ry="13.309" transform="translate(17.592 38.011) rotate(-90)" fill="#d1d1d1"/>
        <ellipse id="截圖_2022-12-09_18.57.50-16" data-name="截圖 2022-12-09 18.57.50" cx="4.033" cy="15.099" rx="4.033" ry="15.099" transform="translate(15.802 18.023) rotate(-90)" fill="#d1d1d1" opacity="0.474"/>
      </g>
      <g id="sharpicons_cross" transform="translate(146.567 746.412) rotate(-26)" opacity="0.253">
        <path id="Path_124" data-name="Path 124" d="M181.275,52.762l-18.938-2.1-2.082-16.637A2.305,2.305,0,0,0,157.969,32h-4.611a2.305,2.305,0,0,0-2.287,2.019L148.99,50.657l-18.938,2.1A2.305,2.305,0,0,0,128,55.053v4.611a2.305,2.305,0,0,0,2.052,2.291l18.82,2.091L151.058,99a2.305,2.305,0,0,0,2.3,2.16h4.611A2.305,2.305,0,0,0,160.27,99l2.185-34.951,18.82-2.091a2.305,2.305,0,0,0,2.052-2.291V55.053a2.305,2.305,0,0,0-2.052-2.291ZM178.717,57.6l-18.7,2.077a2.305,2.305,0,0,0-2.047,2.146L155.8,96.548h-.281l-2.169-34.725a2.305,2.305,0,0,0-2.047-2.144l-18.7-2.082v-.484l18.7-2.077a2.305,2.305,0,0,0,2.033-2.006l2.052-16.421h.542l2.052,16.423a2.305,2.305,0,0,0,2.036,2.006l18.7,2.077Z" fill="#a8a8a8"/>
        <path id="Path_125" data-name="Path 125" d="M304,176.017a1.153,1.153,0,0,0,0,1.63l4.89,4.89a1.152,1.152,0,0,0,1.63-1.63l-4.887-4.887a1.153,1.153,0,0,0-1.632,0Zm24.452,22.822a1.153,1.153,0,1,0-1.63,1.63l4.887,4.887a1.152,1.152,0,0,0,1.632-1.628Zm3.26-22.822-4.89,4.89a1.153,1.153,0,1,0,1.63,1.63l4.887-4.887a1.153,1.153,0,1,0-1.628-1.632Zm-22.822,22.822-4.887,4.887a1.153,1.153,0,1,0,1.628,1.632l4.889-4.89a1.153,1.153,0,1,0-1.63-1.63Z" transform="translate(-163.012 -133.329)" fill="#a8a8a8"/>
      </g>
    </g>
  </svg>
  