<svg width="71" height="70" viewBox="0 0 71 70" fill="none" xmlns="http://www.w3.org/2000/svg">
<rect x="0.500122" width="70" height="70" rx="35" fill="#FFF1F2"/>
<path d="M27.271 36.9052L50.8408 16.2802C50.8408 16.2802 53.0491 14.0719 55.2595 16.2802C57.4689 18.4906 55.2595 20.7 55.2595 20.7L34.6356 44.2708L27.271 36.9052Z" stroke="#E11D48" stroke-width="4" stroke-linejoin="round"/>
<path d="M33.9001 31.749L39.7929 37.6417" stroke="#E11D48" stroke-width="4" stroke-linecap="round" stroke-linejoin="round"/>
<path d="M16.222 42.0604L27.2709 36.9042L34.6355 44.2708L29.4793 55.3188C29.4793 55.3188 24.323 56.0552 19.9043 51.6365C15.4845 47.2167 16.222 42.0604 16.222 42.0604Z" stroke="#E11D48" stroke-width="4" stroke-linejoin="round"/>
<path d="M17.6959 47.9531L22.8522 45.7437M23.5886 53.8458L25.0626 50.9" stroke="#E11D48" stroke-width="4" stroke-linecap="round" stroke-linejoin="round"/>
<path d="M30.2189 34.3271L33.1647 31.749L36.1105 29.1708M42.371 35.4313L39.7928 38.3771L37.2147 41.324" stroke="#E11D48" stroke-width="4" stroke-linejoin="round"/>
</svg>
