<svg width="71" height="70" viewBox="0 0 71 70" fill="none" xmlns="http://www.w3.org/2000/svg">
<rect x="0.5" width="70" height="70" rx="35" fill="#FFF1F2"/>
<path fill-rule="evenodd" clip-rule="evenodd" d="M47.0044 17.0417L53.4586 23.4958C53.8354 23.8724 54.1097 24.3391 54.2554 24.8516C54.4011 25.364 54.4134 25.9052 54.2911 26.4237C54.1687 26.9422 53.9159 27.4209 53.5565 27.8142C53.1971 28.2075 52.7432 28.5024 52.2378 28.6708L46.9253 30.4417C47.4868 32.2538 47.5427 34.1849 47.0871 36.0265C46.6315 37.8682 45.6815 39.5504 44.3398 40.8917L41.3919 43.8375C40.0509 45.1796 38.3687 46.1299 36.5271 46.5859C34.6855 47.0419 32.7543 46.9863 30.9419 46.425L29.1711 51.7375C29.0026 52.2429 28.7077 52.6969 28.3144 53.0562C27.9211 53.4156 27.4425 53.6685 26.924 53.7908C26.4055 53.9131 25.8643 53.9008 25.3518 53.7551C24.8394 53.6095 24.3727 53.3352 23.9961 52.9583L17.5419 46.5042C17.1651 46.1276 16.8908 45.6609 16.7451 45.1484C16.5994 44.636 16.5871 44.0948 16.7095 43.5763C16.8318 43.0578 17.0846 42.5791 17.444 42.1858C17.8034 41.7925 18.2573 41.4976 18.7628 41.3292L24.0753 39.5583C23.5129 37.7456 23.4565 35.8137 23.9122 33.9712C24.3678 32.1288 25.3182 30.4458 26.6607 29.1042L29.6086 26.1583C30.9499 24.8166 32.6321 23.8667 34.4737 23.4111C36.3153 22.9554 38.2464 23.0114 40.0586 23.5729L41.8294 18.2604C41.9977 17.7548 42.2924 17.3007 42.6856 16.9411C43.0787 16.5815 43.5573 16.3284 44.0759 16.2058C44.5944 16.0833 45.1357 16.0954 45.6483 16.2409C46.1608 16.3865 46.6277 16.6607 47.0044 17.0375V17.0417ZM26.0982 43.2729L21.6794 44.7458L25.7503 48.8188L27.2232 44.3979L26.0982 43.2729ZM32.5544 29.1062L29.6086 32.0521C29.0117 32.6286 28.5355 33.3183 28.208 34.0808C27.8804 34.8433 27.708 35.6635 27.7008 36.4933C27.6936 37.3232 27.8517 38.1462 28.166 38.9143C28.4802 39.6824 28.9443 40.3802 29.5311 40.9671C30.118 41.5539 30.8158 42.018 31.5839 42.3322C32.352 42.6465 33.175 42.8046 34.0049 42.7974C34.8347 42.7902 35.6548 42.6178 36.4174 42.2902C37.1799 41.9627 37.8695 41.4865 38.4461 40.8896L41.3919 37.9438C41.9801 37.3652 42.4479 36.6759 42.7684 35.9156C43.0889 35.1554 43.2557 34.3392 43.2591 33.5142C43.2626 32.6891 43.1026 31.8716 42.7885 31.1086C42.4745 30.3457 42.0124 29.6525 41.4291 29.0691C40.8458 28.4856 40.1527 28.0234 39.3899 27.7092C38.627 27.3949 37.8095 27.2348 36.9845 27.238C36.1594 27.2413 35.3432 27.4079 34.5829 27.7282C33.8225 28.0484 33.1331 28.5182 32.5544 29.1062ZM45.2503 21.1771L43.7773 25.5958L44.9023 26.7208L49.3211 25.2479L45.2503 21.1771Z" fill="#E11D48"/>
</svg>
