<svg width="71" height="70" viewBox="0 0 71 70" fill="none" xmlns="http://www.w3.org/2000/svg">
<rect x="0.166748" width="70" height="70" rx="35" fill="#FFF1F2"/>
<path d="M41.4167 22.5V47.5M47.6667 35H47.6876M47.6667 41.25H47.6876M47.6667 28.75H47.6876M16.4167 24.5833C16.4167 24.0308 16.6362 23.5009 17.0269 23.1102C17.4176 22.7195 17.9475 22.5 18.5001 22.5H51.8334C52.3859 22.5 52.9159 22.7195 53.3066 23.1102C53.6973 23.5009 53.9167 24.0308 53.9167 24.5833V45.4167C53.9167 45.9692 53.6973 46.4991 53.3066 46.8898C52.9159 47.2805 52.3859 47.5 51.8334 47.5H18.5001C17.9475 47.5 17.4176 47.2805 17.0269 46.8898C16.6362 46.4991 16.4167 45.9692 16.4167 45.4167V24.5833Z" stroke="#E11D48" stroke-width="4" stroke-linecap="round" stroke-linejoin="round"/>
<path d="M23.7084 31.875C25.7917 30.4854 26.8334 30.4854 28.9167 31.875C30.6521 32.5979 32.3896 33.8042 34.125 31.875M23.7084 38.125C25.7917 36.7354 26.8334 36.7354 28.9167 38.125C30.6521 38.8479 32.3896 40.0542 34.125 38.125" stroke="#E11D48" stroke-width="4" stroke-linecap="round" stroke-linejoin="round"/>
</svg>
