<svg width="71" height="70" viewBox="0 0 71 70" fill="none" xmlns="http://www.w3.org/2000/svg">
<rect x="0.833374" width="70" height="70" rx="35" fill="#FFF1F2"/>
<path d="M28.5417 48.5417H43.125M28.5417 48.5417V55.8334H43.125V48.5417M28.5417 48.5417C28.5417 48.5417 25.4167 41.25 24.375 31.875C23.3334 22.5 23.3334 14.1667 23.3334 14.1667H48.3334C48.3334 14.1667 48.3334 22.5 47.2917 31.875C46.25 41.25 43.125 48.5417 43.125 48.5417" stroke="#E11D48" stroke-width="4" stroke-linecap="round" stroke-linejoin="round"/>
<path d="M24.375 20.4167H47.2917M32.3365 32.8011C33.8271 30.8427 34.9771 28.1354 35.5979 26.6667C36.6854 28.1354 39.0458 31.8209 39.7917 33.7802C40.7229 36.2281 38.3937 39.1667 35.5979 39.1667C32.8021 39.1667 30.4729 35.25 32.3365 32.8011Z" stroke="#E11D48" stroke-width="4" stroke-linecap="round" stroke-linejoin="round"/>
</svg>
