<svg width="71" height="70" viewBox="0 0 71 70" fill="none" xmlns="http://www.w3.org/2000/svg">
  <rect x="0.833252" width="70" height="70" rx="35" fill="#FFF1F2" />
  <path
    d="M32.7083 30.8333C33.5764 30.8333 34.3146 30.5291 34.9229 29.9208C35.5312 29.3125 35.8347 28.575 35.8333 27.7083C35.8333 26.8402 35.5292 26.1021 34.9208 25.4937C34.3125 24.8854 33.575 24.5819 32.7083 24.5833C31.8403 24.5833 31.1021 24.8875 30.4937 25.4958C29.8854 26.1041 29.5819 26.8416 29.5833 27.7083C29.5833 28.5764 29.8875 29.3146 30.4958 29.9229C31.1042 30.5312 31.8417 30.8347 32.7083 30.8333ZM28.5417 41.25C29.4097 41.25 30.1479 40.9458 30.7562 40.3375C31.3646 39.7291 31.6681 38.9916 31.6667 38.125C31.6667 37.2569 31.3625 36.5187 30.7542 35.9104C30.1458 35.3021 29.4083 34.9986 28.5417 35C27.6736 35 26.9354 35.3041 26.3271 35.9125C25.7187 36.5208 25.4153 37.2583 25.4167 38.125C25.4167 38.993 25.7208 39.7312 26.3292 40.3396C26.9375 40.9479 27.675 41.2514 28.5417 41.25ZM42.0833 43.3333C42.6736 43.3333 43.1687 43.1333 43.5688 42.7333C43.9688 42.3333 44.1681 41.8389 44.1667 41.25C44.1667 40.6597 43.9667 40.1646 43.5667 39.7646C43.1667 39.3646 42.6722 39.1652 42.0833 39.1666C41.4931 39.1666 40.9979 39.3666 40.5979 39.7666C40.1979 40.1666 39.9986 40.6611 40 41.25C40 41.8402 40.2 42.3354 40.6 42.7354C41 43.1354 41.4944 43.3347 42.0833 43.3333ZM35.8333 55.8333C32.9514 55.8333 30.2431 55.2861 27.7083 54.1916C25.1736 53.0972 22.9688 51.6132 21.0938 49.7396C19.2188 47.8646 17.7347 45.6597 16.6417 43.125C15.5486 40.5902 15.0014 37.8819 15 35C15 32.0833 15.625 29.2361 16.875 26.4583C18.125 23.6805 19.8701 21.2847 22.1104 19.2708C24.3479 17.2569 27.0028 15.7812 30.075 14.8437C33.1472 13.9062 36.5069 13.8194 40.1542 14.5833C39.8417 16.1458 39.9458 17.6132 40.4667 18.9854C40.9875 20.3576 41.7687 21.5118 42.8104 22.4479C43.8521 23.3854 45.0847 24.0277 46.5083 24.375C47.9319 24.7222 49.425 24.6354 50.9875 24.1146C49.9111 26.5104 50.1021 28.559 51.5604 30.2604C53.0187 31.9618 54.6861 32.8472 56.5625 32.9166C56.875 36.0069 56.5451 38.9409 55.5729 41.7187C54.6007 44.4965 53.1681 46.9271 51.275 49.0104C49.3833 51.0937 47.109 52.7521 44.4521 53.9854C41.7951 55.2187 38.9222 55.8347 35.8333 55.8333ZM35.8333 51.6666C40.0694 51.6666 43.8285 50.2083 47.1104 47.2916C50.3924 44.375 52.1889 40.6597 52.5 36.1458C50.7639 35.3819 49.4007 34.3402 48.4104 33.0208C47.4201 31.7014 46.7521 30.2257 46.4062 28.5937C43.7326 28.2118 41.441 27.0659 39.5312 25.1562C37.6215 23.2465 36.441 20.9548 35.9896 18.2812C33.2118 18.2118 30.7722 18.7152 28.6708 19.7916C26.5694 20.868 24.8167 22.2486 23.4125 23.9333C22.0042 25.6166 20.9437 27.4479 20.2313 29.4271C19.5188 31.4062 19.1639 33.2639 19.1667 35C19.1667 39.618 20.7896 43.5507 24.0354 46.7979C27.2812 50.0451 31.2139 51.668 35.8333 51.6666Z"
    fill="#E11D48" />
</svg>