<svg viewBox="0 0 42 42" fill="none" xmlns="http://www.w3.org/2000/svg">
<g filter="url(#filter0_d_2903_14209)">
<rect x="2" y="1" width="38" height="38" rx="19" fill="#E11D48"/>
<path fill-rule="evenodd" clip-rule="evenodd" d="M21 15C21.5523 15 22 15.4477 22 16V19L25 19C25.5523 19 26 19.4477 26 20C26 20.5523 25.5523 21 25 21H22V24C22 24.5523 21.5523 25 21 25C20.4477 25 20 24.5523 20 24V21H17C16.4477 21 16 20.5523 16 20C16 19.4477 16.4477 19 17 19L20 19V16C20 15.4477 20.4477 15 21 15Z" fill="white"/>
</g>
<defs>
<filter id="filter0_d_2903_14209" x="0" y="0" width="42" height="42" filterUnits="userSpaceOnUse" color-interpolation-filters="sRGB">
<feFlood flood-opacity="0" result="BackgroundImageFix"/>
<feColorMatrix in="SourceAlpha" type="matrix" values="0 0 0 0 0 0 0 0 0 0 0 0 0 0 0 0 0 0 127 0" result="hardAlpha"/>
<feOffset dy="1"/>
<feGaussianBlur stdDeviation="1"/>
<feColorMatrix type="matrix" values="0 0 0 0 0 0 0 0 0 0 0 0 0 0 0 0 0 0 0.05 0"/>
<feBlend mode="normal" in2="BackgroundImageFix" result="effect1_dropShadow_2903_14209"/>
<feBlend mode="normal" in="SourceGraphic" in2="effect1_dropShadow_2903_14209" result="shape"/>
</filter>
</defs>
</svg>
